name rise43.5482peak65.4966fall89.1036.mot
datacolumns 19
datarows 17
range 22.00824800000000 22.03491500000000
endheader
time	ground_force1_vx	ground_force1_vy	ground_force1_vz	ground_force1_px	ground_force1_py	ground_force1_pz	ground_force2_vx	ground_force2_vy	ground_force2_vz	ground_force2_px	ground_force2_py	ground_force2_pz	ground_torque1_x	ground_torque1_y	ground_torque1_z	ground_torque2_x	ground_torque2_y	ground_torque2_z	
22.00824800000000	-45.46404900000000	810.11535600000002	58.51397900000000	0.08993800000000	0.00000000000000	0.12334900000000	-11.04759900000000	49.03603100000000	14.58535400000000	0.29911400000000	0.00000000000000	-0.07498100000000	0.00000000000000	20.74295900000000	0.00000000000000	0.00000000000000	7.73028800000000	0.00000000000000	
22.00991800000000	-45.77230100000000	808.32633499999997	58.44835600000000	0.08939200000000	0.00000000000000	0.12333000000000	-11.84794400000000	54.79528900000000	15.83347400000000	0.30442400000000	0.00000000000000	-0.07555800000000	0.00000000000000	20.70453000000000	0.00000000000000	0.00000000000000	8.50330200000000	0.00000000000000	
22.01158200000000	-46.08843200000000	806.43671600000005	58.35819500000000	0.08885800000000	0.00000000000000	0.12330800000000	-12.49125600000000	60.36014500000000	16.91627800000000	0.30929000000000	0.00000000000000	-0.07610800000000	0.00000000000000	20.66620900000000	0.00000000000000	0.00000000000000	9.19953500000000	0.00000000000000	
22.01324700000000	-46.41321700000000	804.44585400000005	58.24331900000000	0.08833500000000	0.00000000000000	0.12328200000000	-12.97136300000000	65.69429400000000	17.82418600000000	0.31375400000000	0.00000000000000	-0.07663400000000	0.00000000000000	20.62820000000000	0.00000000000000	0.00000000000000	9.81056300000000	0.00000000000000	
22.01491000000000	-46.74741100000000	802.35309800000005	58.10358600000000	0.08782100000000	0.00000000000000	0.12325200000000	-13.29003400000000	70.78599800000001	18.55712100000000	0.31785000000000	0.00000000000000	-0.07714100000000	0.00000000000000	20.59070100000000	0.00000000000000	0.00000000000000	10.33327800000000	0.00000000000000	
22.01657500000000	-47.09173800000000	800.15778599999999	57.93889200000000	0.08731600000000	0.00000000000000	0.12321900000000	-13.45575500000000	75.64537700000000	19.12313400000000	0.32161100000000	0.00000000000000	-0.07763100000000	0.00000000000000	20.55389800000000	0.00000000000000	0.00000000000000	10.76931400000000	0.00000000000000	
22.01824600000000	-47.44688900000000	797.85924599999998	57.74916600000000	0.08681800000000	0.00000000000000	0.12318200000000	-13.48215100000000	80.30036000000000	19.53660500000000	0.32506200000000	0.00000000000000	-0.07810800000000	0.00000000000000	20.51797300000000	0.00000000000000	0.00000000000000	11.12417300000000	0.00000000000000	
22.01992500000000	-47.81351600000000	795.45678399999997	57.53437600000000	0.08632600000000	0.00000000000000	0.12314100000000	-13.38627300000000	84.79188200000000	19.81622500000000	0.32822900000000	0.00000000000000	-0.07857200000000	0.00000000000000	20.48309700000000	0.00000000000000	0.00000000000000	11.40618500000000	0.00000000000000	
22.02158200000000	-48.19222900000000	792.94968400000005	57.29452400000000	0.08584000000000	0.00000000000000	0.12309600000000	-13.18688600000000	89.16884200000000	19.98298400000000	0.33113200000000	0.00000000000000	-0.07902600000000	0.00000000000000	20.44942800000000	0.00000000000000	0.00000000000000	11.62540200000000	0.00000000000000	
22.02324900000000	-48.58358600000000	790.33720600000004	57.02964700000000	0.08535800000000	0.00000000000000	0.12304700000000	-12.90291600000000	93.48327800000000	20.05830400000000	0.33379100000000	0.00000000000000	-0.07947200000000	0.00000000000000	20.41711700000000	0.00000000000000	0.00000000000000	11.79255200000000	0.00000000000000	
22.02491500000000	-48.98809500000000	787.61857799999996	56.73981600000000	0.08487800000000	0.00000000000000	0.12299400000000	-12.55214800000000	97.78611200000000	20.06246200000000	0.33622200000000	0.00000000000000	-0.07991000000000	0.00000000000000	20.38630000000000	0.00000000000000	0.00000000000000	11.91811000000000	0.00000000000000	
22.02657900000000	-49.40620100000000	784.79299400000002	56.42513600000000	0.08440000000000	0.00000000000000	0.12293800000000	-12.15023200000000	102.12369099999999	20.01336600000000	0.33844200000000	0.00000000000000	-0.08034200000000	0.00000000000000	20.35710400000000	0.00000000000000	0.00000000000000	12.01155200000000	0.00000000000000	
22.02824700000000	-49.83828900000000	781.85961499999996	56.08574700000000	0.08392300000000	0.00000000000000	0.12287800000000	-11.71001500000000	106.53525900000000	19.92571700000000	0.34046500000000	0.00000000000000	-0.08076900000000	0.00000000000000	20.32964000000000	0.00000000000000	0.00000000000000	12.08082500000000	0.00000000000000	
22.02991800000000	-50.28467500000000	778.81756099999996	55.72182000000000	0.08344500000000	0.00000000000000	0.12281500000000	-11.24121000000000	111.05138800000000	19.81056500000000	0.34230300000000	0.00000000000000	-0.08119200000000	0.00000000000000	20.30400500000000	0.00000000000000	0.00000000000000	12.13202100000000	0.00000000000000	
22.03157700000000	-50.74560100000000	775.66591400000004	55.33355800000000	0.08296500000000	0.00000000000000	0.12274800000000	-10.75034400000000	115.69331400000000	19.67519900000000	0.34396800000000	0.00000000000000	-0.08161000000000	0.00000000000000	20.28028300000000	0.00000000000000	0.00000000000000	12.16926400000000	0.00000000000000	
22.03324100000000	-51.22123200000000	772.40371500000003	54.92119600000000	0.08248300000000	0.00000000000000	0.12267700000000	-10.24095600000000	120.47305700000000	19.52334900000000	0.34547300000000	0.00000000000000	-0.08202500000000	0.00000000000000	20.25854300000000	0.00000000000000	0.00000000000000	12.19476200000000	0.00000000000000	
22.03491500000000	-51.71165100000000	769.02996099999996	54.48499900000000	0.08199600000000	0.00000000000000	0.12260200000000	-9.71397800000000	125.39418999999999	19.35560400000000	0.34682500000000	0.00000000000000	-0.08243600000000	0.00000000000000	20.23883700000000	0.00000000000000	0.00000000000000	12.20900400000000	0.00000000000000	
